<?xml version="1.0" encoding="UTF-8"?>
<svg width="600" height="900" viewBox="0 0 600 900" role="img" xmlns="http://www.w3.org/2000/svg">
<title>Campingnard — scène nuit pour inscription</title>
<desc>Illustration nocturne : ciel étoilé, montagnes, tente et feu de camp</desc>
<rect width="600" height="900" fill="#080c1a"/>
<circle cx="490" cy="88" r="48" fill="#f5e8b0"/>
<circle cx="510" cy="80" r="44" fill="#080c1a"/>
<circle cx="30" cy="50" r="1.5" fill="#fff" opacity=".9"/>
<circle cx="70" cy="30" r="1" fill="#fff" opacity=".7"/>
<circle cx="120" cy="65" r="2" fill="#fef3c7" opacity=".8"/>
<circle cx="165" cy="35" r="1.5" fill="#fff" opacity=".85"/>
<circle cx="220" cy="55" r="1" fill="#fff" opacity=".7"/>
<circle cx="260" cy="25" r="2" fill="#fef3c7" opacity=".9"/>
<circle cx="310" cy="70" r="1.5" fill="#fff" opacity=".75"/>
<circle cx="355" cy="40" r="1" fill="#fff" opacity=".8"/>
<circle cx="395" cy="80" r="1.5" fill="#fef3c7" opacity=".6"/>
<circle cx="440" cy="130" r="1" fill="#fff" opacity=".7"/>
<circle cx="50" cy="120" r="1.5" fill="#fef3c7" opacity=".7"/>
<circle cx="100" cy="155" r="1" fill="#fff" opacity=".6"/>
<circle cx="185" cy="110" r="2" fill="#fff" opacity=".8"/>
<circle cx="240" cy="148" r="1" fill="#fff" opacity=".6"/>
<circle cx="330" cy="130" r="1.5" fill="#fef3c7" opacity=".7"/>
<circle cx="420" cy="162" r="1" fill="#fff" opacity=".65"/>
<circle cx="545" cy="50" r="2" fill="#fef3c7" opacity=".8"/>
<circle cx="520" cy="170" r="1" fill="#fff" opacity=".5"/>
<circle cx="80" cy="200" r="1.5" fill="#fff" opacity=".6"/>
<circle cx="280" cy="190" r="1" fill="#fef3c7" opacity=".7"/>
<polygon points="0,900 0,320 80,260 160,300 240,240 320,280 400,250 480,290 560,260 600,280 600,900" fill="#12183a"/>
<polygon points="0,900 0,400 70,360 160,380 240,340 330,370 430,340 520,370 600,355 600,900" fill="#152c30"/>
<polygon points="0,900 0,480 50,450 120,465 200,438 300,455 390,435 480,455 560,440 600,460 600,900" fill="#0d2018"/>
<rect x="0" y="500" width="600" height="400" fill="#0a1810"/>
<polygon points="-30,510 30,360 90,510" fill="#061010"/>
<polygon points="0,510 50,380 100,510" fill="#081410"/>
<polygon points="40,510 80,415 120,510" fill="#061010"/>
<polygon points="-10,510 20,435 50,510" fill="#040d0a"/>
<polygon points="510,510 560,360 610,510" fill="#061010"/>
<polygon points="530,510 580,385 630,510" fill="#081410"/>
<polygon points="490,510 530,415 570,510" fill="#061010"/>
<polygon points="555,510 585,438 615,510" fill="#040d0a"/>
<ellipse cx="300" cy="480" rx="100" ry="30" fill="#f59e0b" opacity=".04"/>
<ellipse cx="300" cy="478" rx="60" ry="20" fill="#f59e0b" opacity=".07"/>
<ellipse cx="300" cy="476" rx="30" ry="12" fill="#f59e0b" opacity=".1"/>
<polygon points="200,500 300,390 300,500" fill="#1a5535"/>
<polygon points="300,390 400,500 300,500" fill="#22734a"/>
<line x1="300" y1="390" x2="300" y2="500" stroke="#0d3320" stroke-width="2"/>
<path d="M278 500 Q300 430 322 500Z" fill="#091f12"/>
<ellipse cx="300" cy="492" rx="22" ry="8" fill="#f59e0b" opacity=".15"/>
<ellipse cx="300" cy="490" rx="12" ry="5" fill="#fde68a" opacity=".2"/>
<ellipse cx="300" cy="528" rx="90" ry="22" fill="#f97316" opacity=".06"/>
<ellipse cx="300" cy="524" rx="50" ry="14" fill="#f97316" opacity=".09"/>
<line x1="270" y1="518" x2="330" y2="530" stroke="#5c2c0a" stroke-width="7" stroke-linecap="round"/>
<line x1="270" y1="530" x2="330" y2="518" stroke="#5c2c0a" stroke-width="7" stroke-linecap="round"/>
<path d="M300 524 Q282 506 290 494 Q300 484 310 494 Q318 506 300 524Z" fill="#f97316"/>
<path d="M300 520 Q287 505 293 497 Q300 490 307 497 Q313 505 300 520Z" fill="#fb923c"/>
<path d="M300 516 Q293 506 296 500 Q300 496 304 500 Q307 506 300 516Z" fill="#fef3c7"/>
<circle cx="286" cy="484" r="2" fill="#fbbf24" opacity=".8"/>
<circle cx="314" cy="480" r="1.5" fill="#fbbf24" opacity=".6"/>
<circle cx="295" cy="475" r="1" fill="#fbbf24" opacity=".5"/>
<circle cx="308" cy="470" r="1.5" fill="#fbbf24" opacity=".4"/>
</svg>
