<?xml version="1.0" encoding="UTF-8"?>
<svg width="390" height="280" viewBox="0 0 390 280" role="img" xmlns="http://www.w3.org/2000/svg">
<title>Campingnard — entête mobile</title>
<desc>Illustration camping nocturne pour l'application mobile</desc>
<rect width="390" height="280" fill="#080c1a"/>
<circle cx="330" cy="55" r="30" fill="#f5e8b0"/>
<circle cx="345" cy="48" r="27" fill="#080c1a"/>
<circle cx="20" cy="32" r="1.5" fill="#fff" opacity=".9"/>
<circle cx="55" cy="18" r="1" fill="#fff" opacity=".7"/>
<circle cx="95" cy="42" r="1.5" fill="#fef3c7" opacity=".8"/>
<circle cx="140" cy="22" r="1" fill="#fff" opacity=".85"/>
<circle cx="188" cy="35" r="1.5" fill="#fef3c7" opacity=".75"/>
<circle cx="238" cy="18" r="1" fill="#fff" opacity=".7"/>
<circle cx="288" cy="42" r="1.5" fill="#fef3c7" opacity=".6"/>
<circle cx="50" cy="80" r="1" fill="#fff" opacity=".65"/>
<circle cx="130" cy="68" r="1.5" fill="#fff" opacity=".7"/>
<circle cx="210" cy="60" r="1" fill="#fef3c7" opacity=".65"/>
<circle cx="270" cy="75" r="1.5" fill="#fff" opacity=".6"/>
<circle cx="355" cy="110" r="1" fill="#fff" opacity=".5"/>
<polygon points="0,280 0,140 40,115 90,135 150,105 210,125 270,108 330,128 390,115 390,280" fill="#12183a"/>
<polygon points="0,280 0,175 35,162 85,168 150,155 220,165 290,152 350,162 390,158 390,280" fill="#0d2018"/>
<rect x="0" y="190" width="390" height="90" fill="#0a1810"/>
<polygon points="-10,195 22,130 54,195" fill="#061010"/>
<polygon points="20,195 45,150 70,195" fill="#081410"/>
<polygon points="336,195 360,130 384,195" fill="#061010"/>
<polygon points="318,195 342,152 366,195" fill="#081410"/>
<ellipse cx="195" cy="182" rx="55" ry="16" fill="#f59e0b" opacity=".07"/>
<polygon points="148,200 195,150 195,200" fill="#1a5535"/>
<polygon points="195,150 242,200 195,200" fill="#22734a"/>
<line x1="195" y1="150" x2="195" y2="200" stroke="#0d3320" stroke-width="1.5"/>
<path d="M183 200 Q195 168 207 200Z" fill="#091f12"/>
<ellipse cx="195" cy="215" rx="42" ry="10" fill="#f97316" opacity=".08"/>
<line x1="179" y1="209" x2="211" y2="217" stroke="#5c2c0a" stroke-width="4" stroke-linecap="round"/>
<line x1="179" y1="217" x2="211" y2="209" stroke="#5c2c0a" stroke-width="4" stroke-linecap="round"/>
<path d="M195 213 Q186 204 190 197 Q195 192 200 197 Q204 204 195 213Z" fill="#f97316"/>
<path d="M195 210 Q189 203 192 198 Q195 195 198 198 Q201 203 195 210Z" fill="#fef3c7"/>
<circle cx="186" cy="190" r="1.5" fill="#fbbf24" opacity=".7"/>
<circle cx="204" cy="187" r="1" fill="#fbbf24" opacity=".6"/>
</svg>
